<svg width="512" height="137" viewBox="0 0 512 137" fill="none" xmlns="http://www.w3.org/2000/svg">
<g clip-path="url(#clip0_29_297)">
<path fill-rule="evenodd" clip-rule="evenodd" d="M330.242 136.446H258.496C249.698 136.446 242.565 129.309 242.565 120.503C242.565 111.697 249.698 104.56 258.496 104.56H330.242C339.036 104.56 346.174 111.697 346.174 120.503C346.174 129.309 339.036 136.446 330.242 136.446ZM272.992 123.723C272.992 122.377 272.435 121.377 271.302 120.705C272.128 120.052 272.551 119.168 272.551 118.034C272.551 115.67 270.803 114.211 268.115 114.211H262.816V127.661H268.48C269.844 127.661 270.938 127.296 271.763 126.585C272.589 125.874 272.992 124.914 272.992 123.723ZM266.253 117.284H268.019C268.653 117.284 269.113 117.707 269.113 118.342C269.113 119.014 268.633 119.399 268.019 119.399H266.253V117.284ZM268.384 124.586H266.253V122.319H268.384C269.076 122.319 269.555 122.761 269.555 123.453C269.555 124.125 269.076 124.586 268.384 124.586ZM307.681 114.211H297.596V117.535H300.922V127.661H304.356V117.535H307.681V114.211ZM323.072 127.661H326.777L322.345 114.21H318.153L313.722 127.661H317.442L318.022 125.719H322.5L323.072 127.661ZM318.904 122.76L320.249 118.188L321.61 122.76H318.904ZM284.719 124.433V122.454H289.344V119.284H284.719V117.419H289.823V114.211H281.282V127.661H289.924V124.433H284.719Z" fill="#00A2F3"/>
<path d="M171.135 63.4039C171.135 77.5783 160.918 83.4353 150.516 83.4353C140.067 83.4353 129.897 77.5783 129.897 63.4039V37.7493H139.649V62.5207C139.649 71.1192 144.432 74.2787 150.516 74.2787C156.599 74.2787 161.383 71.1192 161.383 62.5207V37.7493H171.135V63.4039Z" fill="#0B23A9"/>
<path d="M190.453 22.7837H180.421V82.2727H190.453V22.7837Z" fill="#0B23A9"/>
<path d="M220.895 45.4638H209.377V67.7723C209.377 73.7206 213.278 73.6285 220.895 73.2562V82.2727C205.57 84.1318 199.347 79.9491 199.347 67.7723V22.7837H209.377V35.7971H220.895V45.4638Z" fill="#0B23A9"/>
<path d="M321.208 22.7837H311.177V82.2727H321.208V22.7837Z" fill="#0B23A9"/>
<path d="M400.367 45.4638H388.849V67.7723C388.849 73.7206 392.751 73.6285 400.367 73.2562V82.2727C385.042 84.1318 378.819 79.9491 378.819 67.7723V22.7837H388.849V35.7971H400.367V45.4638Z" fill="#0B23A9"/>
<path d="M407.753 40.9404H417.784V82.2727H407.753V40.9404ZM408.217 32.1097C405.711 29.5075 405.711 25.6027 408.217 23.0941C410.723 20.4911 414.815 20.4911 417.32 23.0941C419.826 25.6027 419.826 29.5075 417.228 32.1097C414.722 34.6191 410.816 34.6191 408.217 32.1097Z" fill="#0B23A9"/>
<path d="M362.973 35.7981H373.653L355.821 83.7605C350.382 98.1184 346.255 100.864 333.069 100.864L333.158 91.4758C339.474 91.8474 343.003 88.7799 345.511 82.3665L345.975 81.4369L326.285 35.7981H337.245L351.084 69.5388L362.973 35.7981Z" fill="#0B23A9"/>
<path d="M432.031 76.4175C427.387 71.6766 425.065 65.9133 425.065 59.0355C425.065 52.064 427.387 46.3007 432.031 41.6535C436.768 36.9127 442.619 34.5891 449.585 34.5891C458.594 34.5891 466.582 39.237 470.298 46.5801L461.66 51.5996C459.523 47.1374 455.065 44.4423 449.492 44.4423C445.405 44.4423 441.969 45.8363 439.183 48.625C436.489 51.413 435.096 54.8527 435.096 59.0355C435.096 63.2182 436.489 66.6572 439.183 69.4459C441.969 72.2339 445.405 73.6287 449.492 73.6287C454.972 73.6287 459.616 70.8399 461.845 66.4714L470.483 71.398C466.489 78.8339 458.594 83.4811 449.585 83.4811C442.619 83.4811 436.768 81.1575 432.031 76.4175Z" fill="#0B23A9"/>
<path d="M495.311 54.666C502.463 56.2465 511.751 59.221 511.565 69.1671C511.565 73.6285 509.801 77.1611 506.364 79.6696C502.928 82.1798 498.656 83.4809 493.454 83.4809C484.259 83.4809 477.479 79.3918 474.507 72.606L483.144 67.5866C484.723 72.048 488.16 74.2787 493.454 74.2787C498.748 74.2787 501.349 72.5124 501.349 69.0734C501.349 66.0989 497.448 64.3326 492.525 63.1244C485.559 61.3589 476.179 58.5701 476.364 48.8106C476.364 44.5342 477.943 41.0952 481.194 38.493C484.444 35.89 488.532 34.5881 493.361 34.5881C501.07 34.5881 507.293 38.2144 510.544 44.2555L502.092 48.9964C500.513 45.4638 497.54 43.6982 493.361 43.6982C489.553 43.6982 486.581 45.3709 486.581 48.6248C486.581 51.6915 490.482 53.272 495.311 54.666Z" fill="#0B23A9"/>
<path d="M278.951 73.9071C283.131 73.9071 286.661 72.5124 289.447 69.7244C292.233 66.8427 293.626 63.3101 293.626 59.0353C293.626 54.7589 292.233 51.2271 289.447 48.4383C286.661 45.5566 283.131 44.1627 278.951 44.1627C274.772 44.1627 271.242 45.5566 268.456 48.4383C265.669 51.2271 264.277 54.7589 264.277 59.0353C264.277 63.3101 265.669 66.8427 268.456 69.7244C271.242 72.5124 274.772 73.9071 278.951 73.9071ZM293.626 35.7971H303.657V82.2726H293.626V75.5798C289.818 80.8787 284.431 83.4809 277.373 83.4809C270.963 83.4809 265.577 81.1565 261.026 76.4173C256.474 71.6764 254.245 65.8203 254.245 59.0353C254.245 52.1566 256.474 46.3934 261.026 41.6533C265.577 36.9125 270.963 34.5881 277.373 34.5881C284.431 34.5881 289.818 37.1911 293.626 42.3964V35.7971Z" fill="#0B23A9"/>
<path d="M238.035 44.2223C240.478 38.6108 245.181 35.8042 251.965 35.8042V46.395C248.256 46.1233 245 47.0289 242.196 49.1102C239.392 51.1018 238.035 54.4509 238.035 59.0671V81.8772H228.267V36.6192H238.035V44.2223Z" fill="#0B23A9"/>
<path d="M0.0116823 83.2109V83.1513H0.0101355C0.409217 55.2025 22.576 32.2925 50.1204 30.5866V25.0787C50.1204 11.2503 38.8788 0 25.0602 0C11.2416 0 0.000854492 11.2503 0.000854492 25.0787V83.9276C0.000854492 83.3657 0.00394815 83.9052 0.0116823 83.2109Z" fill="#0B23A9"/>
<path d="M81.7662 109.007C95.584 109.007 106.826 97.7561 106.826 83.9269C106.826 70.0992 95.584 58.8481 81.7662 58.8481C67.9476 58.8481 56.7061 70.0992 56.7061 83.9269C56.7061 97.7561 67.9476 109.007 81.7662 109.007Z" fill="#0B23A9"/>
<path d="M-0.0389404 83.1451L0.0297668 83.2072C0.00119062 83.9301 0.0364523 83.338 0.0011877 83.9301C-0.0121678 97.769 11.2473 109.064 25.0069 109.016C38.8973 108.962 50.1208 97.7638 50.1342 83.9248C50.1597 66.4781 64.3115 52.3098 81.8068 52.2679C88.5559 52.2508 94.8891 54.3536 100.057 58.0245C90.8968 41.6377 73.4178 30.4638 53.432 30.5018C24.3994 30.4776 0.443788 54.1322 -0.0389404 83.1451Z" fill="url(#paint0_linear_29_297)"/>
<path d="M147.906 104.511H154.118V136.276H147.906V123.117H136.116V136.276H129.858V104.511H136.116V117.127H147.906V104.511Z" fill="#00A2F3"/>
<path d="M169.486 133.917C167.219 131.92 166.085 129.243 166.085 125.885V104.511H172.298V125.386C172.298 128.699 174.157 130.785 178.193 130.785C182.228 130.785 184.087 128.699 184.087 125.386V104.511H190.344V125.885C190.344 129.243 189.211 131.92 186.944 133.917C184.677 135.913 181.775 136.912 178.193 136.912C174.655 136.912 171.753 135.913 169.486 133.917Z" fill="#00A2F3"/>
<path d="M215.779 130.423C217.91 130.423 219.452 128.835 219.452 126.656C219.452 124.523 217.91 122.935 215.779 122.935H208.569V130.423H215.779ZM208.569 110.365V117.353H214.827C216.777 117.353 218.227 115.856 218.227 113.859C218.227 111.863 216.821 110.365 214.827 110.365H208.569ZM225.664 127.065C225.664 129.742 224.712 131.966 222.808 133.69C220.903 135.414 218.545 136.276 215.779 136.276H202.311V104.511H214.827C217.547 104.511 219.814 105.373 221.674 107.053C223.533 108.732 224.485 110.864 224.485 113.451C224.485 116.083 223.487 118.216 221.492 119.804C224.259 121.392 225.664 123.843 225.664 127.065Z" fill="#00A2F3"/>
</g>
<defs>
<linearGradient id="paint0_linear_29_297" x1="76.515" y1="31.3901" x2="14.4434" y2="100.097" gradientUnits="userSpaceOnUse">
<stop stop-color="#00DEF3"/>
<stop offset="1" stop-color="#0B23A9"/>
</linearGradient>
<clipPath id="clip0_29_297">
<rect width="512" height="137" fill="white"/>
</clipPath>
</defs>
</svg>
